<svg xmlns="http://www.w3.org/2000/svg" xmlns:xlink="http://www.w3.org/1999/xlink" viewBox="0 0 366.6 487.7"><defs><style>.cls-1,.cls-10,.cls-11,.cls-12,.cls-13,.cls-14,.cls-15,.cls-16,.cls-17,.cls-18,.cls-19,.cls-2,.cls-20,.cls-21,.cls-22,.cls-23,.cls-24,.cls-25,.cls-26,.cls-27,.cls-28,.cls-29,.cls-3,.cls-30,.cls-31,.cls-32,.cls-33,.cls-34,.cls-35,.cls-36,.cls-37,.cls-38,.cls-39,.cls-4,.cls-40,.cls-41,.cls-42,.cls-43,.cls-44,.cls-45,.cls-46,.cls-47,.cls-48,.cls-49,.cls-5,.cls-50,.cls-51,.cls-52,.cls-53,.cls-54,.cls-55,.cls-56,.cls-57,.cls-58,.cls-59,.cls-6,.cls-60,.cls-61,.cls-62,.cls-63,.cls-64,.cls-65,.cls-66,.cls-67,.cls-68,.cls-7,.cls-8,.cls-9{fill:#c60a0a;stroke-miterlimit:10;}.cls-1{stroke:url(#Gradiente_sem_nome_15);}.cls-2{stroke:url(#Gradiente_sem_nome_15-2);}.cls-3{stroke:url(#Gradiente_sem_nome_15-3);}.cls-4{stroke:url(#Gradiente_sem_nome_15-4);}.cls-5{stroke:url(#Gradiente_sem_nome_15-5);}.cls-6{stroke:url(#Gradiente_sem_nome_15-6);}.cls-7{stroke:url(#Gradiente_sem_nome_15-7);}.cls-8{stroke:url(#Gradiente_sem_nome_15-8);}.cls-9{stroke:url(#Gradiente_sem_nome_15-9);}.cls-10{stroke:url(#Gradiente_sem_nome_15-10);}.cls-11{stroke:url(#Gradiente_sem_nome_15-11);}.cls-12{stroke:url(#Gradiente_sem_nome_15-12);}.cls-13{stroke:url(#Gradiente_sem_nome_15-13);}.cls-14{stroke:url(#Gradiente_sem_nome_15-14);}.cls-15{stroke:url(#Gradiente_sem_nome_15-15);}.cls-16{stroke:url(#Gradiente_sem_nome_15-16);}.cls-17{stroke:url(#Gradiente_sem_nome_15-17);}.cls-18{stroke:url(#Gradiente_sem_nome_15-18);}.cls-19{stroke:url(#Gradiente_sem_nome_15-19);}.cls-20{stroke:url(#Gradiente_sem_nome_15-20);}.cls-21{stroke:url(#Gradiente_sem_nome_15-21);}.cls-22{stroke:url(#Gradiente_sem_nome_15-22);}.cls-23{stroke:url(#Gradiente_sem_nome_15-23);}.cls-24{stroke:url(#Gradiente_sem_nome_15-24);}.cls-25{stroke:url(#Gradiente_sem_nome_15-25);}.cls-26{stroke:url(#Gradiente_sem_nome_15-26);}.cls-27{stroke:url(#Gradiente_sem_nome_15-27);}.cls-28{stroke:url(#Gradiente_sem_nome_15-28);}.cls-29{stroke:url(#Gradiente_sem_nome_15-29);}.cls-30{stroke:url(#Gradiente_sem_nome_15-30);}.cls-31{stroke:url(#Gradiente_sem_nome_15-31);}.cls-32{stroke:url(#Gradiente_sem_nome_15-32);}.cls-33{stroke:url(#Gradiente_sem_nome_15-33);}.cls-34{stroke:url(#Gradiente_sem_nome_15-34);}.cls-35{stroke:url(#Gradiente_sem_nome_15-35);}.cls-36{stroke:url(#Gradiente_sem_nome_15-36);}.cls-37{stroke:url(#Gradiente_sem_nome_15-37);}.cls-38{stroke:url(#Gradiente_sem_nome_15-38);}.cls-39{stroke:url(#Gradiente_sem_nome_15-39);}.cls-40{stroke:url(#Gradiente_sem_nome_15-40);}.cls-41{stroke:url(#Gradiente_sem_nome_15-41);}.cls-42{stroke:url(#Gradiente_sem_nome_15-42);}.cls-43{stroke:url(#Gradiente_sem_nome_15-43);}.cls-44{stroke:url(#Gradiente_sem_nome_15-44);}.cls-45{stroke:url(#Gradiente_sem_nome_15-45);}.cls-46{stroke:url(#Gradiente_sem_nome_15-46);}.cls-47{stroke:url(#Gradiente_sem_nome_15-47);}.cls-48{stroke:url(#Gradiente_sem_nome_15-48);}.cls-49{stroke:url(#Gradiente_sem_nome_15-49);}.cls-50{stroke:url(#Gradiente_sem_nome_15-50);}.cls-51{stroke:url(#Gradiente_sem_nome_15-51);}.cls-52{stroke:url(#Gradiente_sem_nome_15-52);}.cls-53{stroke:url(#Gradiente_sem_nome_15-53);}.cls-54{stroke:url(#Gradiente_sem_nome_15-54);}.cls-55{stroke:url(#Gradiente_sem_nome_15-55);}.cls-56{stroke:url(#Gradiente_sem_nome_15-56);}.cls-57{stroke:url(#Gradiente_sem_nome_15-57);}.cls-58{stroke:url(#Gradiente_sem_nome_15-58);}.cls-59{stroke:url(#Gradiente_sem_nome_15-59);}.cls-60{stroke:url(#Gradiente_sem_nome_15-60);}.cls-61{stroke:url(#Gradiente_sem_nome_15-61);}.cls-62{stroke:url(#Gradiente_sem_nome_15-62);}.cls-63{stroke:url(#Gradiente_sem_nome_15-63);}.cls-64{stroke:url(#Gradiente_sem_nome_15-64);}.cls-65{stroke:url(#Gradiente_sem_nome_15-65);}.cls-66{stroke:url(#Gradiente_sem_nome_15-66);}.cls-67{stroke:url(#Gradiente_sem_nome_15-67);}.cls-68{stroke:url(#Gradiente_sem_nome_15-68);}</style><linearGradient id="Gradiente_sem_nome_15" x1="0.01" y1="14.38" x2="27.17" y2="14.38" gradientUnits="userSpaceOnUse"><stop offset="0" stop-color="#7fd3ff" stop-opacity="0.5"/><stop offset="1" stop-color="#624381"/></linearGradient><linearGradient id="Gradiente_sem_nome_15-2" x1="0.01" y1="28.31" x2="51.82" y2="28.31" xlink:href="#Gradiente_sem_nome_15"/><linearGradient id="Gradiente_sem_nome_15-3" x1="0.01" y1="50.32" x2="41.53" y2="50.32" xlink:href="#Gradiente_sem_nome_15"/><linearGradient id="Gradiente_sem_nome_15-4" x1="0.01" y1="62.06" x2="114.6" y2="62.06" xlink:href="#Gradiente_sem_nome_15"/><linearGradient id="Gradiente_sem_nome_15-5" x1="20.4" y1="67.31" x2="101.75" y2="67.31" xlink:href="#Gradiente_sem_nome_15"/><linearGradient id="Gradiente_sem_nome_15-6" x1="0.01" y1="126.99" x2="41.53" y2="126.99" xlink:href="#Gradiente_sem_nome_15"/><linearGradient id="Gradiente_sem_nome_15-7" x1="0.01" y1="84.27" x2="155.89" y2="84.27" xlink:href="#Gradiente_sem_nome_15"/><linearGradient id="Gradiente_sem_nome_15-8" x1="0" y1="160.41" x2="52.46" y2="160.41" xlink:href="#Gradiente_sem_nome_15"/><linearGradient id="Gradiente_sem_nome_15-9" x1="0.01" y1="144.66" x2="99.39" y2="144.66" xlink:href="#Gradiente_sem_nome_15"/><linearGradient id="Gradiente_sem_nome_15-10" x1="162.73" y1="14.32" x2="189.6" y2="14.32" xlink:href="#Gradiente_sem_nome_15"/><linearGradient id="Gradiente_sem_nome_15-11" x1="62.86" y1="80.38" x2="210.6" y2="80.38" xlink:href="#Gradiente_sem_nome_15"/><linearGradient id="Gradiente_sem_nome_15-12" x1="0.02" y1="219.99" x2="4.45" y2="219.99" xlink:href="#Gradiente_sem_nome_15"/><linearGradient id="Gradiente_sem_nome_15-13" x1="83.87" y1="132.34" x2="160.89" y2="132.34" xlink:href="#Gradiente_sem_nome_15"/><linearGradient id="Gradiente_sem_nome_15-14" x1="25.54" y1="197.7" x2="75.18" y2="197.7" xlink:href="#Gradiente_sem_nome_15"/><linearGradient id="Gradiente_sem_nome_15-15" x1="0.01" y1="243.56" x2="13.89" y2="243.56" xlink:href="#Gradiente_sem_nome_15"/><linearGradient id="Gradiente_sem_nome_15-16" x1="0.01" y1="247.84" x2="42.17" y2="247.84" xlink:href="#Gradiente_sem_nome_15"/><linearGradient id="Gradiente_sem_nome_15-17" x1="25.86" y1="202.74" x2="109.03" y2="202.74" xlink:href="#Gradiente_sem_nome_15"/><linearGradient id="Gradiente_sem_nome_15-18" x1="86.01" y1="161.7" x2="141.6" y2="161.7" xlink:href="#Gradiente_sem_nome_15"/><linearGradient id="Gradiente_sem_nome_15-19" x1="111.15" y1="91.7" x2="278.17" y2="91.7" xlink:href="#Gradiente_sem_nome_15"/><linearGradient id="Gradiente_sem_nome_15-20" x1="204.29" y1="32.32" x2="236.47" y2="32.32" xlink:href="#Gradiente_sem_nome_15"/><linearGradient id="Gradiente_sem_nome_15-21" x1="198" y1="24.77" x2="233.04" y2="24.77" xlink:href="#Gradiente_sem_nome_15"/><linearGradient id="Gradiente_sem_nome_15-22" x1="194.3" y1="101.15" x2="234.17" y2="101.15" xlink:href="#Gradiente_sem_nome_15"/><linearGradient id="Gradiente_sem_nome_15-23" x1="90.58" y1="193.63" x2="220.74" y2="193.63" xlink:href="#Gradiente_sem_nome_15"/><linearGradient id="Gradiente_sem_nome_15-24" x1="67.09" y1="198.88" x2="153.6" y2="198.88" xlink:href="#Gradiente_sem_nome_15"/><linearGradient id="Gradiente_sem_nome_15-25" x1="20.41" y1="247.2" x2="122.74" y2="247.2" xlink:href="#Gradiente_sem_nome_15"/><linearGradient id="Gradiente_sem_nome_15-26" x1="0.01" y1="283.34" x2="61.43" y2="283.34" xlink:href="#Gradiente_sem_nome_15"/><linearGradient id="Gradiente_sem_nome_15-27" x1="0.01" y1="272.2" x2="41.6" y2="272.2" xlink:href="#Gradiente_sem_nome_15"/><linearGradient id="Gradiente_sem_nome_15-28" x1="0.01" y1="283.91" x2="37.6" y2="283.91" xlink:href="#Gradiente_sem_nome_15"/><linearGradient id="Gradiente_sem_nome_15-29" x1="0.01" y1="297.34" x2="86.17" y2="297.34" xlink:href="#Gradiente_sem_nome_15"/><linearGradient id="Gradiente_sem_nome_15-30" x1="0.01" y1="339.34" x2="15.89" y2="339.34" xlink:href="#Gradiente_sem_nome_15"/><linearGradient id="Gradiente_sem_nome_15-31" x1="0" y1="299.63" x2="64.46" y2="299.63" xlink:href="#Gradiente_sem_nome_15"/><linearGradient id="Gradiente_sem_nome_15-32" x1="0.01" y1="310.74" x2="122.75" y2="310.74" xlink:href="#Gradiente_sem_nome_15"/><linearGradient id="Gradiente_sem_nome_15-33" x1="0.01" y1="361.63" x2="14.17" y2="361.63" xlink:href="#Gradiente_sem_nome_15"/><linearGradient id="Gradiente_sem_nome_15-34" x1="18.42" y1="328.9" x2="50.08" y2="328.9" xlink:href="#Gradiente_sem_nome_15"/><linearGradient id="Gradiente_sem_nome_15-35" x1="50" y1="273.26" x2="156.02" y2="273.26" xlink:href="#Gradiente_sem_nome_15"/><linearGradient id="Gradiente_sem_nome_15-36" x1="57.29" y1="293.09" x2="148.03" y2="293.09" xlink:href="#Gradiente_sem_nome_15"/><linearGradient id="Gradiente_sem_nome_15-37" x1="0.01" y1="351.13" x2="105.6" y2="351.13" xlink:href="#Gradiente_sem_nome_15"/><linearGradient id="Gradiente_sem_nome_15-38" x1="0" y1="390.56" x2="16.9" y2="390.56" xlink:href="#Gradiente_sem_nome_15"/><linearGradient id="Gradiente_sem_nome_15-39" x1="0.01" y1="313.41" x2="195.03" y2="313.41" xlink:href="#Gradiente_sem_nome_15"/><linearGradient id="Gradiente_sem_nome_15-40" x1="151.16" y1="172.49" x2="286.74" y2="172.49" xlink:href="#Gradiente_sem_nome_15"/><linearGradient id="Gradiente_sem_nome_15-41" x1="240.72" y1="109.2" x2="295.89" y2="109.2" xlink:href="#Gradiente_sem_nome_15"/><linearGradient id="Gradiente_sem_nome_15-42" x1="243.3" y1="107.2" x2="366.6" y2="107.2" xlink:href="#Gradiente_sem_nome_15"/><linearGradient id="Gradiente_sem_nome_15-43" x1="230.86" y1="68.27" x2="318.6" y2="68.27" xlink:href="#Gradiente_sem_nome_15"/><linearGradient id="Gradiente_sem_nome_15-44" x1="0.01" y1="407.7" x2="58.46" y2="407.7" xlink:href="#Gradiente_sem_nome_15"/><linearGradient id="Gradiente_sem_nome_15-45" x1="0.01" y1="411.34" x2="75.6" y2="411.34" xlink:href="#Gradiente_sem_nome_15"/><linearGradient id="Gradiente_sem_nome_15-46" x1="0" y1="435.99" x2="45.18" y2="435.99" xlink:href="#Gradiente_sem_nome_15"/><linearGradient id="Gradiente_sem_nome_15-47" x1="0.01" y1="442.41" x2="58.03" y2="442.41" xlink:href="#Gradiente_sem_nome_15"/><linearGradient id="Gradiente_sem_nome_15-48" x1="4.58" y1="446.34" x2="81.6" y2="446.34" xlink:href="#Gradiente_sem_nome_15"/><linearGradient id="Gradiente_sem_nome_15-49" x1="28.66" y1="460.06" x2="82.45" y2="460.06" xlink:href="#Gradiente_sem_nome_15"/><linearGradient id="Gradiente_sem_nome_15-50" x1="47.87" y1="454.7" x2="109.03" y2="454.7" xlink:href="#Gradiente_sem_nome_15"/><linearGradient id="Gradiente_sem_nome_15-51" x1="66.73" y1="461.7" x2="111.6" y2="461.7" xlink:href="#Gradiente_sem_nome_15"/><linearGradient id="Gradiente_sem_nome_15-52" x1="84.29" y1="457.7" x2="139.03" y2="457.7" xlink:href="#Gradiente_sem_nome_15"/><linearGradient id="Gradiente_sem_nome_15-53" x1="78.08" y1="474.52" x2="103.03" y2="474.52" xlink:href="#Gradiente_sem_nome_15"/><linearGradient id="Gradiente_sem_nome_15-54" x1="98.88" y1="472.52" x2="129.16" y2="472.52" xlink:href="#Gradiente_sem_nome_15"/><linearGradient id="Gradiente_sem_nome_15-55" x1="102.29" y1="413.34" x2="239.74" y2="413.34" xlink:href="#Gradiente_sem_nome_15"/><linearGradient id="Gradiente_sem_nome_15-56" x1="74.44" y1="403.29" x2="208.46" y2="403.29" xlink:href="#Gradiente_sem_nome_15"/><linearGradient id="Gradiente_sem_nome_15-57" x1="176.87" y1="322.7" x2="220.88" y2="322.7" xlink:href="#Gradiente_sem_nome_15"/><linearGradient id="Gradiente_sem_nome_15-58" x1="102.64" y1="382.44" x2="199.25" y2="382.44" xlink:href="#Gradiente_sem_nome_15"/><linearGradient id="Gradiente_sem_nome_15-59" x1="78.08" y1="328.41" x2="156.03" y2="328.41" xlink:href="#Gradiente_sem_nome_15"/><linearGradient id="Gradiente_sem_nome_15-60" x1="116.69" y1="312.56" x2="209.31" y2="312.56" xlink:href="#Gradiente_sem_nome_15"/><linearGradient id="Gradiente_sem_nome_15-61" x1="86.45" y1="374.49" x2="136.45" y2="374.49" xlink:href="#Gradiente_sem_nome_15"/><linearGradient id="Gradiente_sem_nome_15-62" x1="93.72" y1="327.85" x2="193.46" y2="327.85" xlink:href="#Gradiente_sem_nome_15"/><linearGradient id="Gradiente_sem_nome_15-63" x1="122.43" y1="348.19" x2="221.75" y2="348.19" xlink:href="#Gradiente_sem_nome_15"/><linearGradient id="Gradiente_sem_nome_15-64" x1="220.59" y1="348.34" x2="319.02" y2="348.34" xlink:href="#Gradiente_sem_nome_15"/><linearGradient id="Gradiente_sem_nome_15-65" x1="184.57" y1="480.93" x2="196.47" y2="480.93" xlink:href="#Gradiente_sem_nome_15"/><linearGradient id="Gradiente_sem_nome_15-66" x1="143.24" y1="479.93" x2="159.15" y2="479.93" xlink:href="#Gradiente_sem_nome_15"/><linearGradient id="Gradiente_sem_nome_15-67" x1="158.01" y1="449.34" x2="228.17" y2="449.34" xlink:href="#Gradiente_sem_nome_15"/><linearGradient id="Gradiente_sem_nome_15-68" x1="128.44" y1="455.77" x2="187.03" y2="455.77" xlink:href="#Gradiente_sem_nome_15"/></defs><title>Ativo 2</title><g id="Camada_2" data-name="Camada 2"><g id="Camada_1-2" data-name="Camada 1"><line class="cls-1" x1="0.38" y1="28.41" x2="26.8" y2="0.34"/><line class="cls-2" x1="0.38" y1="56.27" x2="51.45" y2="0.34"/><line class="cls-3" x1="0.38" y1="72.34" x2="41.16" y2="28.31"/><line class="cls-4" x1="0.38" y1="123.77" x2="114.23" y2="0.34"/><line class="cls-5" x1="101.38" y1="23.06" x2="20.77" y2="111.56"/><line class="cls-6" x1="41.16" y1="104.49" x2="0.38" y2="149.49"/><line class="cls-7" x1="0.38" y1="168.2" x2="155.52" y2="0.34"/><line class="cls-8" x1="52.09" y1="131.49" x2="0.38" y2="189.34"/><line class="cls-9" x1="99.02" y1="90.34" x2="0.38" y2="198.99"/><line class="cls-10" x1="163.09" y1="28.31" x2="189.23" y2="0.34"/><line class="cls-11" x1="210.23" y1="0.34" x2="63.23" y2="160.41"/><line class="cls-12" x1="4.09" y1="218.06" x2="0.38" y2="221.91"/><line class="cls-13" x1="160.52" y1="91.2" x2="84.23" y2="173.49"/><line class="cls-14" x1="74.8" y1="170.49" x2="25.91" y2="224.91"/><line class="cls-15" x1="13.52" y1="236.49" x2="0.38" y2="250.63"/><line class="cls-16" x1="41.8" y1="225.77" x2="0.38" y2="269.91"/><line class="cls-17" x1="108.66" y1="157.63" x2="26.23" y2="247.84"/><line class="cls-18" x1="141.23" y1="132.34" x2="86.38" y2="191.06"/><line class="cls-19" x1="277.8" y1="0.34" x2="111.52" y2="183.06"/><line class="cls-20" x1="236.09" y1="14.32" x2="204.66" y2="50.32"/><line class="cls-21" x1="232.66" y1="5.34" x2="198.38" y2="44.2"/><line class="cls-22" x1="233.8" y1="80.38" x2="194.66" y2="121.91"/><line class="cls-23" x1="220.38" y1="123.63" x2="90.95" y2="263.63"/><line class="cls-24" x1="153.23" y1="153.91" x2="67.45" y2="243.84"/><line class="cls-25" x1="122.38" y1="193.63" x2="20.77" y2="300.77"/><line class="cls-26" x1="61.07" y1="251.63" x2="0.38" y2="315.06"/><line class="cls-27" x1="41.23" y1="250.49" x2="0.38" y2="293.91"/><line class="cls-28" x1="37.23" y1="264.2" x2="0.38" y2="303.63"/><line class="cls-29" x1="85.8" y1="250.49" x2="0.38" y2="344.2"/><line class="cls-30" x1="15.52" y1="331.06" x2="0.38" y2="347.63"/><line class="cls-31" x1="64.09" y1="264.2" x2="0.38" y2="335.06"/><line class="cls-32" x1="122.38" y1="243.56" x2="0.38" y2="377.91"/><line class="cls-33" x1="13.8" y1="354.49" x2="0.38" y2="368.77"/><line class="cls-34" x1="49.7" y1="310.74" x2="18.8" y2="347.06"/><line class="cls-35" x1="155.66" y1="217.63" x2="50.36" y2="328.9"/><line class="cls-36" x1="147.66" y1="243.84" x2="57.66" y2="342.34"/><line class="cls-37" x1="105.23" y1="295.2" x2="0.38" y2="407.06"/><line class="cls-38" x1="16.52" y1="381.34" x2="0.38" y2="399.77"/><line class="cls-39" x1="194.66" y1="210.34" x2="0.38" y2="416.49"/><line class="cls-40" x1="151.52" y1="243.84" x2="286.38" y2="101.15"/><line class="cls-41" x1="295.52" y1="78.34" x2="241.09" y2="140.06"/><line class="cls-42" x1="243.66" y1="172.49" x2="366.23" y2="41.91"/><line class="cls-43" x1="231.23" y1="116.06" x2="318.23" y2="20.49"/><line class="cls-44" x1="58.09" y1="376.2" x2="0.38" y2="439.2"/><line class="cls-45" x1="75.23" y1="371.06" x2="0.38" y2="451.63"/><line class="cls-46" x1="44.8" y1="411.34" x2="0.38" y2="460.63"/><line class="cls-47" x1="57.66" y1="411.34" x2="0.38" y2="473.49"/><line class="cls-48" x1="81.23" y1="405.34" x2="4.95" y2="487.34"/><line class="cls-49" x1="82.09" y1="432.77" x2="29.02" y2="487.34"/><line class="cls-50" x1="108.66" y1="422.06" x2="48.23" y2="487.34"/><line class="cls-51" x1="111.23" y1="438.34" x2="67.09" y2="485.06"/><line class="cls-52" x1="138.66" y1="428.06" x2="84.66" y2="487.34"/><line class="cls-53" x1="78.45" y1="487.34" x2="102.66" y2="461.7"/><line class="cls-54" x1="128.8" y1="457.7" x2="99.23" y2="487.34"/><line class="cls-55" x1="239.38" y1="339.34" x2="102.66" y2="487.34"/><line class="cls-56" x1="208.09" y1="332.06" x2="74.8" y2="474.52"/><line class="cls-57" x1="220.52" y1="299.63" x2="177.23" y2="345.77"/><line class="cls-58" x1="198.88" y1="328.9" x2="103.01" y2="435.99"/><line class="cls-59" x1="155.66" y1="286.2" x2="78.45" y2="370.63"/><line class="cls-60" x1="208.95" y1="263.49" x2="117.05" y2="361.63"/><line class="cls-61" x1="86.8" y1="399.77" x2="136.09" y2="349.2"/><line class="cls-62" x1="193.09" y1="273.26" x2="94.09" y2="382.44"/><line class="cls-63" x1="221.38" y1="293.09" x2="122.8" y2="403.29"/><line class="cls-64" x1="318.66" y1="297.34" x2="220.95" y2="399.34"/><line class="cls-65" x1="184.95" y1="487.34" x2="196.09" y2="474.52"/><line class="cls-66" x1="143.59" y1="487.34" x2="158.8" y2="472.52"/><line class="cls-67" x1="227.8" y1="411.34" x2="158.38" y2="487.34"/><line class="cls-68" x1="128.8" y1="487.34" x2="186.66" y2="424.2"/></g></g></svg>