<svg id="Capa_1" enable-background="new 0 0 511.987 511.987" height="512" viewBox="0 0 511.987 511.987" width="512" xmlns="http://www.w3.org/2000/svg"><g id="XMLID_494_"><g id="XMLID_1721_"><g id="XMLID_2077_"><path id="XMLID_2210_" d="m503.214 195.45-186.676-186.677c-11.698-11.698-30.73-11.696-42.427 0l-179.214 179.214h-64.896c-16.542 0-30 13.458-30 30v264c0 16.542 13.458 30 30 30h156.778c5.522 0 10-4.478 10-10s-4.478-10-10-10h-156.778c-5.514 0-10-4.486-10-10v-264c0-5.514 4.486-10 10-10h403.557c5.514 0 10 4.486 10 10v264c0 5.514-4.486 10-10 10h-156.778c-5.522 0-10 4.478-10 10s4.478 10 10 10h156.777c16.542 0 30-13.458 30-30v-204.454l39.656-39.656c11.697-11.698 11.697-30.73.001-42.427zm-300.835-7.463 132.544-132.544 25.456 25.456-107.089 107.088zm85.875-165.071c3.897-3.9 10.242-3.9 14.142 0l18.384 18.384-146.686 146.687h-50.911zm200.817 200.818-25.514 25.514v-31.261c0-16.542-13.458-30-30-30h-151.982l92.946-92.946 114.551 114.551c3.899 3.899 3.899 10.243-.001 14.142z"/><path id="XMLID_2215_" d="m151.557 349.987c0-5.522-4.478-10-10-10h-80c-5.522 0-10 4.478-10 10v44c0 5.522 4.478 10 10 10h80c5.522 0 10-4.478 10-10zm-20 34h-60v-24h60z"/><path id="XMLID_2220_" d="m185.557 403.987h88c5.522 0 10-4.478 10-10v-44c0-5.522-4.478-10-10-10h-88c-5.522 0-10 4.478-10 10v44c0 5.522 4.478 10 10 10zm10-44h68v24h-68z"/><path id="XMLID_2223_" d="m307.557 349.987v44c0 5.522 4.478 10 10 10h88c5.522 0 10-4.478 10-10v-44c0-5.522-4.478-10-10-10h-88c-5.522 0-10 4.477-10 10zm20 10h68v24h-68z"/><path id="XMLID_2224_" d="m405.668 241.987h-80c-5.522 0-10 4.478-10 10s4.478 10 10 10h80c5.522 0 10-4.478 10-10s-4.478-10-10-10z"/><path id="XMLID_2225_" d="m405.668 289.987h-38.917c-5.522 0-10 4.478-10 10s4.478 10 10 10h38.917c5.522 0 10-4.478 10-10s-4.478-10-10-10z"/><path id="XMLID_2227_" d="m141.557 427.987h-80c-5.522 0-10 4.478-10 10s4.478 10 10 10h80c5.522 0 10-4.478 10-10s-4.477-10-10-10z"/><path id="XMLID_2228_" d="m275.557 437.987c0-5.522-4.478-10-10-10h-80c-5.522 0-10 4.478-10 10s4.478 10 10 10h80c5.523 0 10-4.478 10-10z"/><path id="XMLID_2229_" d="m231.781 491.987c-2.631 0-5.211 1.069-7.07 2.93-1.86 1.86-2.93 4.44-2.93 7.07s1.069 5.21 2.93 7.069c1.859 1.86 4.439 2.931 7.07 2.931 2.63 0 5.199-1.07 7.069-2.931 1.86-1.859 2.931-4.439 2.931-7.069s-1.07-5.21-2.931-7.07c-1.859-1.861-4.439-2.93-7.069-2.93z"/><path id="XMLID_2240_" d="m86.001 317.987c20.953 0 38-17.047 38-38s-17.047-38-38-38-38 17.047-38 38 17.047 38 38 38zm0-56c9.925 0 18 8.075 18 18s-8.075 18-18 18-18-8.075-18-18 8.075-18 18-18z"/></g></g></g></svg>