<svg id="_x31__x2C_5" enable-background="new 0 0 24 24" height="512" viewBox="0 0 24 24" width="512" xmlns="http://www.w3.org/2000/svg"><path d="m21.25 24h-17.5c-1.517 0-2.75-1.233-2.75-2.75v-18.5c0-1.517 1.233-2.75 2.75-2.75h15.5c.414 0 .75.336.75.75v3.25h1.25c.414 0 .75.336.75.75v18.5c0 .414-.336.75-.75.75zm-18.75-18.801v16.051c0 .689.561 1.25 1.25 1.25h16.75v-17h-16.75c-.45 0-.875-.108-1.25-.301zm1.25-3.699c-.689 0-1.25.561-1.25 1.25s.561 1.25 1.25 1.25h14.75v-2.5z"/><path d="m8.5 17.25c-.17 0-.34-.057-.48-.174l-3-2.5c-.171-.142-.27-.353-.27-.576s.099-.434.27-.576l3-2.5c.317-.265.791-.224 1.057.096.266.318.223.791-.096 1.056l-2.309 1.924 2.309 1.924c.318.265.361.738.096 1.056-.149.178-.362.27-.577.27z"/><path d="m14.5 17.25c-.215 0-.428-.092-.576-.27-.266-.318-.223-.791.096-1.056l2.308-1.924-2.309-1.924c-.318-.265-.361-.738-.096-1.056.266-.32.737-.361 1.057-.096l3 2.5c.171.143.27.354.27.576s-.099.434-.27.576l-3 2.5c-.14.117-.31.174-.48.174z"/><path d="m10.5 18.25c-.067 0-.137-.009-.206-.029-.398-.114-.629-.529-.515-.927l2-7c.113-.397.521-.63.927-.515.398.114.629.529.515.927l-2 7c-.094.33-.394.544-.721.544z"/></svg>